<?xml version="1.0" encoding="UTF-8"?>
<svg xmlns="http://www.w3.org/2000/svg" xmlns:xlink="http://www.w3.org/1999/xlink" width="1190.55118pt" height="1683.779516pt" viewBox="0 0 1190.55118 1683.779516" version="1.2">
<g id="surface8">
<path style="fill:none;stroke-width:0.3985;stroke-linecap:butt;stroke-linejoin:miter;stroke:rgb(0%,0%,0%);stroke-opacity:1;stroke-miterlimit:10;" d="M 0.000851875 -0.000572 L 360.000852 -0.000572 " transform="matrix(2,0,0,-2,235.27564,736.811356)"/>
<path style="fill:none;stroke-width:0.3985;stroke-linecap:butt;stroke-linejoin:miter;stroke:rgb(0%,0%,0%);stroke-opacity:1;stroke-miterlimit:10;" d="M 0.000851875 0.0002105 L 360.000852 0.0002105 " transform="matrix(2,0,0,-2,235.27564,1055.484796)"/>
<path style="fill:none;stroke-width:0.5;stroke-linecap:square;stroke-linejoin:miter;stroke:rgb(0%,0%,0%);stroke-opacity:1;stroke-miterlimit:10;" d="M -224.503911 -323.999811 L -238.675786 -323.999811 " transform="matrix(2,0,0,-2,595.26954,841.898816)"/>
<path style="fill:none;stroke-width:0.5;stroke-linecap:square;stroke-linejoin:miter;stroke:rgb(0%,0%,0%);stroke-opacity:1;stroke-miterlimit:10;" d="M 224.503902 -323.999811 L 238.675777 -323.999811 " transform="matrix(2,0,0,-2,595.26954,841.898816)"/>
<path style="fill:none;stroke-width:0.5;stroke-linecap:square;stroke-linejoin:miter;stroke:rgb(0%,0%,0%);stroke-opacity:1;stroke-miterlimit:10;" d="M -224.503911 324.000189 L -238.675786 324.000189 " transform="matrix(2,0,0,-2,595.26954,841.898816)"/>
<path style="fill:none;stroke-width:0.5;stroke-linecap:square;stroke-linejoin:miter;stroke:rgb(0%,0%,0%);stroke-opacity:1;stroke-miterlimit:10;" d="M 224.503902 324.000189 L 238.675777 324.000189 " transform="matrix(2,0,0,-2,595.26954,841.898816)"/>
<path style="fill:none;stroke-width:0.5;stroke-linecap:square;stroke-linejoin:miter;stroke:rgb(0%,0%,0%);stroke-opacity:1;stroke-miterlimit:10;" d="M -216.000004 -332.503717 L -216.000004 -346.675592 " transform="matrix(2,0,0,-2,595.26954,841.898816)"/>
<path style="fill:none;stroke-width:0.5;stroke-linecap:square;stroke-linejoin:miter;stroke:rgb(0%,0%,0%);stroke-opacity:1;stroke-miterlimit:10;" d="M -216.000004 332.504095 L -216.000004 346.67597 " transform="matrix(2,0,0,-2,595.26954,841.898816)"/>
<path style="fill:none;stroke-width:0.5;stroke-linecap:square;stroke-linejoin:miter;stroke:rgb(0%,0%,0%);stroke-opacity:1;stroke-miterlimit:10;" d="M 215.999996 -332.503717 L 215.999996 -346.675592 " transform="matrix(2,0,0,-2,595.26954,841.898816)"/>
<path style="fill:none;stroke-width:0.5;stroke-linecap:square;stroke-linejoin:miter;stroke:rgb(0%,0%,0%);stroke-opacity:1;stroke-miterlimit:10;" d="M 215.999996 332.504095 L 215.999996 346.67597 " transform="matrix(2,0,0,-2,595.26954,841.898816)"/>
</g>
</svg>
